<?xml version="1.0" encoding="UTF-8" standalone="no"?>
<!-- Created with Inkscape (http://www.inkscape.org/) -->
<svg
   xmlns:svg="http://www.w3.org/2000/svg"
   xmlns="http://www.w3.org/2000/svg"
   version="1.0"
   width="709.33466"
   height="428.13779"
   id="svg1903">
  <defs
     id="defs1905" />
  <g
     transform="translate(10.43638,-347.7834)"
     id="layer1">
    <path
       d="M 650.17469,768.98968 C 658.03642,769.721 665.93471,769.721 673.79643,769.11152 C 683.65711,768.13645 691.31163,760.09187 691.65291,750.09715 C 691.93325,741.6869 691.83575,733.15482 691.38476,724.62273 C 690.83627,714.26228 682.76734,705.97395 672.48005,705.12072 C 664.84991,704.51131 657.18321,704.63322 649.54088,705.24263 C 639.72896,706.21777 632.08663,714.26228 631.68439,724.13516 C 631.33092,732.4235 631.30654,740.83374 631.61126,749.12201 C 631.98911,759.48246 639.92397,767.8927 650.17469,768.98968 z M 655.31833,755.21638 C 652.01519,754.60697 649.5165,751.80353 649.19959,748.39069 C 648.44389,740.83374 648.37076,733.15482 648.96801,725.47589 C 649.22397,722.18496 651.74703,719.38159 655.1355,718.77211 C 659.31623,718.04079 663.63104,718.1627 667.82396,719.01593 C 670.98084,719.62534 673.39421,722.18496 673.89394,725.23214 C 675.10062,732.91107 675.22251,740.71183 674.24742,748.26885 C 673.82081,751.80353 671.20024,754.60697 667.75083,755.21638 C 663.65542,756.06961 659.41374,756.06961 655.31833,755.21638 z M 433.3495,354.81688 L 405.14479,354.81688 L 391.83471,395.77098 L 377.31794,354.81688 L 349.80799,354.81688 L 349.80799,420.39216 L 365.62895,420.39216 L 365.62895,367.00556 L 384.57023,420.39216 L 399.57454,420.39216 L 416.95566,367.00556 L 416.95566,420.39216 L 433.3495,420.39216 L 433.3495,354.81688 z M 448.13442,420.51407 L 465.46678,420.51407 L 465.46678,403.57174 L 488.89351,403.57174 C 495.98735,403.57174 502.17922,398.81817 503.84907,391.87056 C 505.70175,384.31355 505.82364,376.51278 504.27567,368.95577 C 502.55707,360.66744 495.26821,354.81688 486.87018,354.81688 L 448.13442,354.81688 L 448.13442,420.51407 z M 486.44357,384.92303 C 485.74882,387.48265 483.44515,389.31094 480.77582,389.31094 L 465.46678,389.31094 L 465.46678,369.32143 L 480.08106,369.32143 C 483.2745,369.32143 486.01697,371.51539 486.65078,374.68449 C 487.36992,377.97542 487.27241,381.51018 486.44357,384.92303 z M 552.93306,420.39216 L 570.31418,420.39216 L 550.31248,354.81688 L 523.29009,354.81688 L 503.03242,420.39216 L 520.43793,420.39216 L 523.76544,409.66612 L 549.66648,409.66612 L 552.93306,420.39216 z M 527.60489,397.23362 L 536.79519,367.37122 L 545.8636,397.23362 L 527.60489,397.23362 z M 672.67507,420.14841 L 672.67507,368.83386 L 690.2634,368.83386 L 690.2634,354.32931 L 637.37653,354.32931 L 637.37653,368.83386 L 655.44022,368.83386 L 655.44022,420.14841 L 672.67507,420.14841 z M -3.323688,769.35534 L 31.365419,769.35534 C 34.851394,769.35534 38.337369,768.86777 41.725834,768.13645 C 48.990313,766.42999 54.487427,760.45753 55.535657,753.02242 C 56.998303,742.54013 56.973926,731.81402 55.438147,721.33173 C 54.085199,712.06832 46.235661,705.36454 36.960043,705.36454 L -3.323688,705.36454 L -3.323688,769.35534 z M 13.764904,755.4602 L 13.764904,719.38159 L 30.329378,719.38159 C 34.241958,719.38159 37.569479,722.30687 38.178916,726.08537 C 39.300278,733.52048 39.300278,740.95558 38.154538,748.39069 C 37.508536,752.41301 33.93724,755.4602 29.744319,755.4602 L 13.764904,755.4602 z M 599.71337,768.50211 L 616.39974,768.50211 L 616.39974,704.87697 L 599.71337,704.87697 L 599.71337,768.50211 z M 118.56354,756.19152 C 115.72357,755.21638 113.68805,752.65676 113.39552,749.73149 C 112.60325,741.6869 112.5545,733.76423 113.3102,725.71971 C 113.62711,722.18496 116.21112,719.38159 119.62396,718.89402 C 123.84126,718.28454 128.10731,718.04079 132.34898,718.6502 C 134.51858,718.89402 136.48096,720.11291 137.71202,721.8193 C 138.24833,722.67253 138.62618,723.6476 138.78463,724.62273 L 155.21503,724.62273 C 155.26379,722.42871 155.04438,720.35666 154.58122,718.28454 C 152.94793,711.337 147.10953,706.09586 139.97913,705.36454 C 130.81321,704.26756 121.53759,704.26756 112.38386,705.60829 C 103.70549,706.70527 97.02607,713.77471 96.428822,722.67253 C 95.770631,732.4235 95.758442,742.29638 96.392256,752.16919 C 96.965126,761.18885 103.77862,768.50211 112.67639,769.59909 C 121.50102,770.81798 130.43535,770.93982 139.29656,769.96475 C 147.87742,769.11152 154.53246,762.16399 155.12971,753.50999 C 155.54412,747.17187 155.53194,740.71183 155.08096,734.2518 L 127.21753,734.2518 L 127.21753,744.97791 L 138.2727,744.97791 C 138.89433,747.53753 138.63837,750.09715 137.55357,752.41301 C 136.66379,754.36322 134.98175,755.70395 132.93404,756.31336 C 128.24138,757.776 123.23182,757.65416 118.56354,756.19152 z M 332.40249,705.36454 L 315.66738,705.36454 L 315.66738,768.74586 L 360.48531,768.74586 L 360.48531,755.09454 L 332.40249,755.09454 L 332.40249,705.36454 z M 471.18329,768.62402 C 480.82458,770.33041 490.69744,770.33041 500.36309,768.74586 C 508.55392,767.28322 514.53858,760.21378 514.53858,751.92544 L 514.53858,704.87697 L 497.46218,704.87697 L 497.46218,748.75635 C 497.46218,752.04735 495.15851,754.85072 491.98944,755.4602 C 488.12562,756.19152 484.15209,756.19152 480.30046,755.4602 C 477.03388,754.85072 474.70583,752.04735 474.70583,748.75635 L 474.70583,704.87697 L 457.69038,704.87697 L 457.69038,752.53485 C 457.666,760.45753 463.37032,767.28322 471.18329,768.62402 z M 266.04709,377.36601 C 266.19335,373.83126 265.85207,370.17466 264.96229,366.6399 C 263.36557,360.05803 257.86845,355.18254 251.17684,354.32931 C 242.34002,353.23233 233.40568,353.23233 224.58105,354.45122 C 215.25668,355.67004 208.11409,363.47087 207.57778,372.85619 C 206.98054,382.85091 207.17556,392.8457 208.16284,402.84042 C 209.06481,412.22574 216.3171,419.539 225.6049,420.63598 C 234.75864,421.8548 244.02206,421.61105 253.13923,420.14841 C 259.9771,419.05143 265.34014,413.68838 266.33962,406.74084 C 266.82716,403.44983 266.97343,399.91515 266.74184,396.62414 L 250.48209,396.62414 C 250.28707,398.45251 249.88484,400.28081 249.28759,402.1091 C 248.65378,404.05931 247.03268,405.52195 245.04592,406.13136 C 240.99926,407.22834 236.73321,407.35025 232.66217,406.37518 C 229.10307,405.52195 226.44592,402.47476 226.03151,398.94001 C 225.15392,391.26115 225.0686,383.46032 225.72679,375.90337 C 226.03151,372.36862 228.5302,369.56518 231.91866,368.83386 C 235.84343,367.9807 239.90228,367.85879 243.83923,368.59011 C 246.20384,369.07768 248.11747,370.78407 248.76348,373.09994 C 249.17789,374.44067 249.44605,375.90337 249.64107,377.36601 L 266.04709,377.36601 z M 633.68334,377.00035 C 633.85399,373.34369 633.48833,369.68709 632.61074,366.15233 C 630.98964,359.57046 625.5169,354.69497 618.82529,353.84174 C 610.00066,352.74476 601.04195,352.86667 592.24169,354.08556 C 582.90513,355.30438 575.76254,362.9833 575.21405,372.36862 C 574.61679,382.36334 574.81181,392.48004 575.81129,402.35285 C 576.71326,411.73817 583.95336,419.17334 593.25335,420.27032 C 602.3949,421.3673 611.65833,421.12348 620.77549,419.78275 C 627.61337,418.56386 632.96421,413.20081 633.98806,406.37518 C 634.4878,402.96233 634.60969,399.54949 634.37811,396.13664 L 618.13054,396.13664 C 617.92333,397.96494 617.5211,399.91515 616.92385,401.62154 C 616.27785,403.57174 614.68112,405.15629 612.68218,405.64386 C 608.63552,406.74084 604.38166,406.86268 600.31062,405.88761 C 596.73933,405.03438 594.09438,402.1091 593.66777,398.45251 C 592.80237,390.77358 592.71705,383.09466 593.35086,375.4158 C 593.66777,371.88105 596.19084,369.07768 599.56711,368.34636 C 603.49188,367.49313 607.53853,367.49313 611.49987,368.22445 C 613.85229,368.59011 615.75374,370.2965 616.42411,372.61237 C 616.80197,374.07501 617.11888,375.53771 617.27732,377.00035 L 633.68334,377.00035 z M 67.297774,769.59909 L 83.971947,769.59909 L 83.971947,705.97395 L 67.297774,705.97395 L 67.297774,769.59909 z M 169.03704,768.98968 L 185.71121,768.98968 L 185.71121,705.36454 L 169.03704,705.36454 L 169.03704,768.98968 z M 297.03082,420.63598 C 305.14851,421.48914 313.33933,421.61105 321.46921,420.87973 C 331.69555,419.90466 339.63041,411.49442 339.98388,401.25588 C 340.2886,392.48004 340.19109,383.58223 339.71573,374.80633 C 339.14286,364.08028 330.79358,355.5482 320.12845,354.57306 C 312.20578,353.96365 304.24654,353.96365 296.34825,354.69497 C 286.18286,355.67004 278.26019,363.95837 277.84577,374.19692 C 277.4923,382.85091 277.45573,391.62681 277.78483,400.28081 C 278.16268,410.88501 286.37787,419.66084 297.03082,420.63598 z M 302.3451,406.49702 C 298.90788,405.88761 296.32387,402.96233 295.98259,399.54949 C 295.20251,391.62681 295.12938,383.58223 295.751,375.78146 C 296.01916,372.24671 298.65192,369.32143 302.12571,368.71202 C 306.48927,367.9807 310.96253,368.10254 315.28953,368.95577 C 318.5561,369.56518 321.07917,372.24671 321.60329,375.53771 C 322.84654,383.33848 322.95623,391.38299 321.96895,399.30567 C 321.51796,402.96233 318.78769,405.88761 315.22858,406.49702 C 310.96253,407.35025 306.58678,407.35025 302.3451,406.49702 z M 227.53072,769.35534 L 227.53072,719.38159 L 244.66807,719.38159 L 244.66807,705.36454 L 193.13415,705.36454 L 193.13415,719.38159 L 210.74685,719.38159 L 210.74685,769.35534 L 227.53072,769.35534 z M 437.14019,768.86777 L 454.07033,768.86777 L 434.59275,704.87697 L 408.24073,704.87697 L 388.50719,768.86777 L 405.44951,768.86777 L 408.69171,758.38548 L 433.94675,758.38548 L 437.14019,768.86777 z M 412.44584,746.19673 L 421.40455,717.18756 L 430.24137,746.19673 L 412.44584,746.19673 z M 290.31484,769.35534 L 307.3181,769.35534 L 287.74301,705.24263 L 261.31787,705.24263 L 241.499,769.35534 L 258.51446,769.35534 L 261.76885,758.87305 L 287.1092,758.87305 L 290.31484,769.35534 z M 265.53516,746.6843 L 274.51825,717.55322 L 283.40382,746.6843 L 265.53516,746.6843 z M 528.17776,769.23343 L 562.85468,769.23343 C 566.36503,769.23343 569.81444,768.86777 573.21509,768.13645 C 580.47957,766.42999 585.97668,760.45753 587.02492,753.02242 C 588.49975,742.41822 588.47537,731.81402 586.9274,721.20989 C 585.59883,712.06832 577.71273,705.24263 568.4493,705.24263 L 528.17776,705.24263 L 528.17776,769.23343 z M 545.26635,755.4602 L 545.26635,719.38159 L 561.81864,719.38159 C 565.71903,719.38159 569.04655,722.18496 569.66817,726.08537 C 570.78954,733.39857 570.78954,740.95558 569.6438,748.26885 C 568.9978,752.41301 565.4265,755.4602 561.24577,755.4602 L 545.26635,755.4602 z M -3.311497,474.99765 L -3.348063,644.05526 C -3.384628,654.29381 0.69859257,664.28853 7.9996374,671.47988 C 15.288494,678.79308 25.185737,682.81541 35.485208,682.81541 L 171.30414,682.81541 C 174.65604,682.81541 177.87387,681.47461 180.22629,679.15874 C 182.5909,676.72103 183.90728,673.55193 183.8951,670.13909 L 183.8951,367.00556 C 183.8951,360.05803 178.2639,354.45122 171.30414,354.45122 L 117.10089,354.45122 C 113.76118,354.45122 110.54336,355.79195 108.17875,358.10782 C 105.81414,360.42369 104.48557,363.71462 104.49776,367.00556 L 104.49776,438.18772 L 33.352181,438.18772 C 13.070146,438.18772 -3.335872,454.64248 -3.311497,474.99765 z M 117.94191,366.27424 L 171.25539,366.27424 L 171.25539,669.77343 L 33.803164,669.77343 C 27.148121,669.77343 20.736853,667.21381 16.007628,662.46023 C 11.278404,657.70658 8.6456396,651.36846 8.6578284,644.66467 L 8.6578284,475.48522 C 8.6456396,468.65953 11.302781,462.3214 16.068572,457.44591 C 20.822174,452.69227 27.282197,450.13265 34.022561,450.13265 L 105.35097,450.13265 C 108.69067,450.13265 111.89631,448.79192 114.27311,446.35414 C 116.62553,444.03827 117.9541,440.86925 117.94191,437.4564 L 117.94191,366.27424 z M 74.574442,642.95829 C 83.65504,648.19943 94.807722,648.32127 103.99802,643.32394 C 112.59107,638.5703 117.92973,629.67256 117.94191,619.79967 L 117.89316,498.88758 C 117.92973,489.86793 112.9811,481.5796 105.05844,477.43543 C 94.941798,472.07237 82.777453,472.55994 73.099607,478.65425 C 66.395809,482.92032 62.312587,490.23359 62.227266,498.2781 L 62.276021,621.62797 C 62.263832,630.40387 66.95649,638.5703 74.574442,642.95829 z M 74.062516,500.47206 C 74.196592,496.20605 76.378373,492.30564 79.900914,489.98977 C 85.751501,486.21126 93.210999,486.33317 98.964077,490.23359 C 102.4013,492.42755 104.47338,496.3279 104.49776,500.47206 L 104.49776,620.16533 C 104.47338,624.55332 102.4013,628.57558 98.927511,631.2571 C 92.906281,635.64502 84.630138,635.40127 78.88925,630.64762 C 75.82988,628.08801 74.074704,624.3095 74.111271,620.40915 L 74.062516,500.47206 z M 211.57569,450.74213 L 211.57569,670.13909 C 211.53912,673.55193 212.8555,676.72103 215.22011,679.15874 C 217.59691,681.47461 220.81473,682.81541 224.16663,682.81541 L 279.08902,682.81541 C 282.44092,682.81541 285.63436,681.47461 288.01117,679.15874 C 290.37578,676.72103 291.69216,673.55193 291.67997,670.13909 L 291.67997,450.74213 C 291.65559,443.79452 286.0244,438.18772 279.08902,438.18772 L 224.16663,438.18772 C 220.82693,438.18772 217.6091,439.52845 215.2323,441.84432 C 212.87988,444.28209 211.5513,447.45112 211.57569,450.74213 z M 223.37437,450.13265 L 279.62532,450.13265 L 279.62532,669.77343 L 223.37437,669.77343 L 223.37437,450.13265 z M 411.48293,616.87439 L 324.46764,616.87439 C 321.12793,616.87439 317.9101,618.21512 315.55768,620.53099 C 313.16869,622.96877 311.8645,626.1378 311.87669,629.55065 L 311.87669,670.13909 C 311.84012,673.55193 313.16869,676.72103 315.5333,679.15874 C 317.89792,681.47461 321.12793,682.81541 324.46764,682.81541 L 448.5854,682.81541 C 459.46993,682.81541 469.89129,678.42742 477.58237,670.74856 C 485.27345,663.06964 489.58827,652.70926 489.61264,641.7394 L 489.61264,565.19418 C 489.49075,542.88887 471.35393,524.72765 448.97544,524.60574 L 386.91046,524.60574 C 383.26604,524.60574 379.88976,522.77745 378.07364,519.60842 C 376.24533,516.43932 376.24533,512.5389 378.07364,509.36987 C 379.88976,506.20078 383.26604,504.37248 386.91046,504.37248 L 467.84359,504.37248 C 471.20767,504.37248 474.4133,503.03175 476.77792,500.71588 C 479.15472,498.2781 480.4711,495.10908 480.44672,491.69623 L 480.44672,450.74213 C 480.44672,443.79452 474.80335,438.18772 467.84359,438.18772 L 353.93996,438.18772 C 330.72045,438.18772 311.87669,457.08025 311.87669,480.2388 L 311.87669,553.0055 C 311.91325,575.9203 330.54981,594.56901 353.53774,594.56901 L 411.48293,594.56901 C 415.48083,594.56901 419.13744,596.64113 421.1364,600.17582 C 423.12316,603.58867 423.12316,607.85474 421.1364,611.26759 C 419.13744,614.80235 415.48083,616.87439 411.48293,616.87439 z M 468.11174,450.13265 L 468.11174,492.54946 L 386.83733,492.54946 C 374.57548,492.54946 364.65386,502.54418 364.65386,514.73293 C 364.65386,527.04352 374.57548,536.9164 386.83733,536.9164 L 449.47518,536.9164 C 464.66232,536.9164 476.94856,549.3489 476.97294,564.46286 L 476.97294,642.10506 C 476.94856,649.41832 474.03545,656.48776 468.83087,661.607 C 463.63847,666.84815 456.59339,669.77343 449.25578,669.77343 L 324.22386,669.77343 L 324.22386,629.55065 L 411.38542,629.55065 C 419.92971,629.55065 427.828,624.91898 432.11843,617.60571 C 436.3723,610.17061 436.3723,601.02905 432.11843,593.59394 C 427.828,586.15884 419.92971,581.64901 411.38542,581.64901 L 351.88007,581.64901 C 344.54246,581.64901 337.50957,578.72366 332.31717,573.48252 C 327.12478,568.24137 324.21167,561.29384 324.22386,553.85873 L 324.22386,480.48262 C 324.19948,472.43803 327.38074,464.75911 333.07287,458.90855 C 338.78938,453.30175 346.54141,450.13265 354.62253,450.13265 L 468.11174,450.13265 z M 689.58083,638.93596 L 689.58083,587.86523 C 689.55645,580.91769 683.93745,575.31089 676.98988,575.31089 L 627.16238,575.31089 C 623.79829,575.31089 620.59266,576.52971 618.22805,578.96748 C 615.85124,581.28335 614.54705,584.57429 614.54705,587.86523 L 614.54705,619.55592 C 614.54705,624.91898 611.63394,630.03822 606.95348,632.71974 C 602.23644,635.40127 596.4468,635.40127 591.75414,632.71974 C 587.04929,630.03822 584.13619,624.91898 584.13619,619.55592 L 584.18494,505.1038 C 584.18494,499.74074 587.07367,494.74342 591.77852,491.93998 C 596.47117,489.25845 602.2852,489.25845 606.96567,491.93998 C 611.65833,494.74342 614.57143,499.74074 614.54705,505.1038 L 614.54705,529.84689 C 614.52268,533.1379 615.82687,536.42883 618.20367,538.7447 C 620.56828,541.18241 623.79829,542.4013 627.16238,542.4013 L 676.98988,542.4013 C 680.34178,542.4013 683.53522,541.06057 685.91202,538.7447 C 688.27664,536.42883 689.60521,533.1379 689.58083,529.84689 L 689.58083,482.92032 C 689.60521,471.0973 684.8638,459.76178 676.49014,451.35154 C 668.07992,442.94129 656.70784,438.18772 644.82384,438.18772 L 551.61668,438.18772 C 540.50056,438.18772 529.8598,442.57564 522.03464,450.49831 C 514.17292,458.29914 509.79716,469.02518 509.79716,480.11696 L 509.79716,642.22697 C 509.77279,652.95301 514.05103,663.31346 521.65679,670.99231 C 529.26256,678.54933 539.59859,682.81541 550.36124,682.81541 L 645.6283,682.81541 C 669.87166,682.81541 689.55645,663.19155 689.58083,638.93596 z M 676.44139,530.57821 L 627.27208,530.57821 L 627.27208,504.73814 C 627.27208,494.74342 621.99436,485.60185 613.40131,480.60446 C 604.83264,475.60713 594.24064,475.60713 585.62321,480.60446 C 577.04235,485.60185 571.74026,494.74342 571.76463,504.73814 L 571.76463,619.19026 C 571.74026,629.18499 577.04235,638.32655 585.62321,643.32394 C 594.24064,648.32127 604.83264,648.32127 613.40131,643.32394 C 621.99436,638.32655 627.27208,629.18499 627.27208,619.19026 L 627.27208,587.13391 L 676.44139,587.13391 L 676.44139,639.05787 C 676.44139,656.0002 662.72907,669.77343 645.79894,669.77343 L 550.05652,669.77343 C 542.57264,669.77343 535.39349,666.84815 530.10358,661.48509 C 524.81367,656.24395 521.86401,649.05259 521.93714,641.49565 L 521.93714,481.21394 C 521.93714,464.02779 535.84447,450.13265 553.00619,450.01081 L 644.44599,450.13265 C 662.10745,450.13265 676.41701,464.39345 676.49014,482.0671 L 676.44139,530.57821"
       style="fill:black;fill-rule:nonzero;stroke:none"
       id="path10" />
  </g>
</svg>
